<?xml version="1.0" encoding="utf-8"?>
<!-- Generator: Adobe Illustrator 22.1.0, SVG Export Plug-In . SVG Version: 6.00 Build 0)  -->
<svg version="1.1" id="Capa_1" xmlns="http://www.w3.org/2000/svg" xmlns:xlink="http://www.w3.org/1999/xlink" x="0px" y="0px"
	 viewBox="0 0 512 512" style="enable-background:new 0 0 512 512;" xml:space="preserve">
<style type="text/css">
	.st0{fill:#FFFFFF;}
	.st1{fill:#E59013;}
</style>
<path class="st0" d="M505.2,408.9L299.5,52.8C290.5,37,274.2,27.6,256,27.6s-34.5,9.4-43.5,25.1L6.8,408.9
	c-9.1,15.7-9.1,34.5,0,50.3s25.4,25.1,43.5,25.1h411.3c18.2,0,34.5-9.4,43.5-25.1C514.3,443.5,514.3,424.7,505.2,408.9z"/>
<g>
	<path class="st1" d="M256,420.9c-18,0-32.7-14.7-32.7-32.7c0-18,14.7-32.7,32.7-32.7c18,0,32.7,14.7,32.7,32.7
		C288.7,406.2,274,420.9,256,420.9z"/>
	<path class="st1" d="M288.9,281c0,18.2-14.8,32.9-32.9,32.9S223,299.2,223,281V129.8c0-8.6,7-15.6,15.6-15.6h34.7
		c8.6,0,15.6,7,15.6,15.6L288.9,281L288.9,281z"/>
</g>
</svg>
